<svg width="107" height="180" viewBox="0 0 107 180" fill="none" xmlns="http://www.w3.org/2000/svg">
<path d="M87.2011 80.0082C87.7558 80.3263 88.167 80.7652 88.306 81.4026C88.5026 82.2997 88.7507 83.1938 88.8405 84.1044C89.1076 86.8414 89.6447 89.5508 89.7121 92.3059C89.7313 93.0475 89.9311 93.7396 90.3599 94.3154C91.0572 95.257 91.3395 96.3243 91.4828 97.4457C92.009 101.611 93.0785 105.657 94.1556 109.701C94.7604 111.971 95.3565 114.239 95.3451 116.618C95.3427 116.911 95.4473 117.228 95.5766 117.495C95.6522 117.648 95.8722 117.793 96.0472 117.819C96.2159 117.845 96.4981 117.767 96.5762 117.639C97.2814 116.51 97.7166 115.268 97.9488 113.961C98.0758 113.26 98.1171 112.542 98.2769 111.85C98.4221 111.214 98.3857 110.661 98.0124 110.106C97.8518 109.865 97.742 109.533 97.7533 109.247C97.7995 108.231 97.9037 107.218 97.9927 106.204C98.0142 105.942 98.3116 105.878 98.7531 106.05C98.8452 106.086 98.9164 106.171 98.9961 106.232L98.9698 106.241C99.1529 105.488 98.8166 104.852 98.5354 104.192C98.163 103.321 98.0419 102.43 98.4436 101.518C98.6912 100.954 98.8456 100.363 98.7884 99.7314C98.5932 97.5771 98.9464 95.4531 99.2204 93.3311C99.3379 92.4123 99.4052 91.5128 99.3505 90.588C99.2575 89.0501 99.376 87.5342 99.9223 86.0647C100.283 85.0897 100.372 84.0756 100.076 83.0549C99.7171 81.806 99.9188 80.6061 100.505 79.4908C100.855 78.8264 100.995 78.1878 100.918 77.443C100.802 76.3289 100.768 75.2079 100.705 74.0883C100.593 72.0527 100.39 70.0166 100.972 68.0075C101.052 67.734 101.091 67.3401 100.954 67.1289C100.167 65.9278 100.698 64.51 100.259 63.2567C100.173 63.0048 100.247 62.6094 100.398 62.3768C100.902 61.5903 100.78 60.8736 100.444 60.0556C100.221 59.5083 100.263 58.8529 100.193 58.2463C100.049 56.9787 100.349 55.7423 101.093 54.5372C100.803 54.0356 100.431 53.5412 100.219 52.9899C99.8884 52.1367 99.6265 51.2515 99.4148 50.3595C99.326 49.9844 99.3761 49.5427 99.472 49.161C99.6201 48.57 99.8854 48.0082 100.056 47.4221C100.236 46.812 100.22 46.1786 99.8142 45.6642C98.6393 44.1825 98.5437 42.4837 98.7782 40.7241C98.8453 40.2093 98.9263 39.7295 98.668 39.2403C98.3752 38.6872 98.3308 38.0804 98.3253 37.4582C98.3221 36.9591 98.2383 36.4394 98.0732 35.9707C97.7248 34.9681 97.6644 33.9843 97.9809 32.9657C98.1349 32.4715 98.1331 31.9762 97.8722 31.4857C96.916 29.7103 96.7407 27.8161 97.1004 25.8643C97.2012 25.3253 97.129 24.852 96.8396 24.407C96.3234 23.6133 96.2399 22.7089 96.0496 21.8055C95.4132 18.8191 95.093 15.762 94.0914 12.8506C93.6255 11.4995 93.2511 10.115 92.9094 8.72765C92.248 6.04197 92.9307 3.6661 94.7504 1.62079C95.1475 1.17347 95.6582 0.78795 96.1861 0.50163C97.6049 -0.269111 99.0646 0.17545 99.8677 1.55996C100.44 2.54675 100.781 3.6211 100.918 4.74253C101.453 9.10891 102.421 13.3998 103.09 17.7411C103.602 21.0705 104.092 24.4202 104.287 27.7789C104.476 31.0408 104.966 34.256 105.318 37.4913C105.538 39.5234 105.8 41.5413 105.507 43.5881C105.451 43.9708 105.541 44.4025 105.661 44.7773C105.979 45.7651 106.168 46.7553 105.989 47.7915C106.435 51.1354 105.919 54.5217 106.441 57.8624C106.283 59.2995 106.643 60.7018 106.705 62.1243C106.745 63.0392 106.734 63.9595 106.743 64.8746C106.752 65.5861 106.748 66.2977 106.763 67.0091C106.768 67.2115 106.851 67.4182 106.832 67.6183C106.734 68.6312 106.587 69.642 106.513 70.6571C106.44 71.6761 107.02 72.6478 106.784 73.687C106.646 74.2955 106.674 74.8911 106.77 75.5075C106.845 76.0009 106.802 76.5243 106.733 77.0227C106.567 78.2336 106.226 79.4372 106.196 80.6494C106.168 81.7559 106.47 82.8671 106.603 83.9772C106.716 84.9115 106.58 85.8493 106.175 86.6714C105.739 87.5565 105.686 88.4194 105.849 89.347C105.902 89.6483 105.921 89.9549 105.956 90.26C106.079 91.3464 105.82 92.2739 104.91 92.9773C104.685 93.149 104.569 93.4618 104.377 93.7464C104.645 94.4153 104.963 95.0562 105.15 95.7296C105.284 96.2112 105.234 96.7434 105.282 97.2521C105.361 98.0824 105.245 98.8452 104.88 99.6242C104.634 100.152 104.668 100.813 104.58 101.415C104.48 102.119 104.5 102.871 104.252 103.519C103.983 104.23 103.859 104.842 104.168 105.566C104.637 106.661 104.545 107.796 104.014 108.832C103.289 110.245 103.052 111.703 103.146 113.276C103.189 113.97 103.027 114.698 102.839 115.376C102.266 117.451 101.224 119.333 100.32 121.272C99.9546 122.051 99.3243 122.565 98.4813 122.767C97.8892 122.909 97.2858 123.055 96.6827 123.098C96.4201 123.117 96.0541 122.957 95.8826 122.757C95.5586 122.377 95.2982 121.924 95.0879 121.464C94.7545 120.738 94.2385 120.386 93.4323 120.351C93.1808 120.341 92.8843 120.084 92.7126 119.859C92.3449 119.376 92.0796 118.811 91.7082 118.329C91.2605 117.747 90.9696 117.126 90.8249 116.405C90.1789 113.188 89.0102 110.145 87.7851 107.115C87.3325 105.993 87.1518 104.756 86.8796 103.565C86.7671 103.072 86.8414 102.517 86.6626 102.057C86.0181 100.425 86.298 98.8284 86.7793 97.2551C87.0089 96.5038 87.0437 95.8888 86.5126 95.2662C85.9663 94.6236 85.9718 93.9787 86.629 93.3832C86.7762 93.2486 86.9143 93.0814 86.9994 92.9009C87.1512 92.584 86.9853 92.3152 86.7883 92.0718L86.8 92.1182C87.0213 91.5505 87.2639 90.9902 87.4498 90.4114C87.5036 90.2438 87.4474 90.0004 87.3592 89.8352C87.1252 89.3986 86.3734 89.2469 86.4915 88.6726C86.5854 88.2116 87.0144 87.8269 87.2493 87.3848C87.3358 87.2206 87.3388 86.9842 87.3107 86.7921C87.2665 86.492 87.2021 86.182 87.0778 85.9116C86.1559 83.9059 86.503 81.9479 87.2537 79.9964L87.2012 80.0207L87.2011 80.0082ZM100.667 102.915L100.692 102.661C100.606 102.657 100.494 102.618 100.44 102.657C100.395 102.691 100.416 102.814 100.407 102.898C100.493 102.902 100.581 102.907 100.666 102.912L100.667 102.915ZM101.999 109.189L102.054 109.429L102.212 109.287L101.999 109.189Z" fill="black"/>
<path d="M44.1169 138.848C43.9848 139.963 43.8804 141.086 43.7106 142.195C43.6013 142.911 43.2738 143.549 42.8201 144.125C42.4459 144.596 41.894 144.733 41.1953 144.485C41.0062 144.418 40.8255 144.314 40.6327 144.26C40.5533 144.237 40.3863 144.271 40.3679 144.321C40.3065 144.485 40.2045 144.745 40.2781 144.831C41.1484 145.848 40.953 146.907 40.4535 147.987C40.324 148.264 40.192 148.553 39.9929 148.781C38.9876 149.948 38.3428 151.376 37.3866 152.557C35.1359 155.331 33.165 158.331 30.6991 160.931C30.4163 161.227 30.1782 161.587 29.8458 161.806C28.8809 162.442 28.2514 163.332 27.6073 164.272C26.9819 165.187 26.0858 165.912 25.3098 166.725C25.0284 167.019 24.743 167.315 24.4768 167.623C24.427 167.68 24.4647 167.814 24.46 167.996C24.7576 167.957 25.0544 167.965 25.3201 167.876C27.2591 167.225 29.1878 166.544 31.1294 165.9C32.1974 165.546 33.2718 165.211 34.3618 164.94C36.0778 164.515 37.8131 164.562 39.5253 164.983C39.9134 165.079 40.2823 165.278 40.6335 165.475C41.1718 165.775 41.329 166.631 40.9546 167.077C40.8886 167.154 40.8304 167.242 40.7581 167.313C38.2795 169.771 35.6062 171.962 32.4598 173.547C29.147 175.216 25.6816 176.403 22.0564 177.156C21.6561 177.239 21.2339 177.258 20.8555 177.392C17.5383 178.571 14.0429 178.667 10.6022 179.106C9.5612 179.239 8.56549 179.093 7.56192 178.912C6.62254 178.741 5.95411 178.073 4.96451 177.486C4.88488 177.156 4.78238 176.655 4.64225 176.168C4.4982 175.662 4.23914 175.232 3.71555 175.023C2.02744 174.348 1.39128 172.807 0.719256 171.321C0.610273 171.083 0.65419 170.648 0.808235 170.442C1.77982 169.152 2.1302 167.418 3.61044 166.495C4.57944 165.057 5.6737 163.709 6.46436 162.149C7.34525 160.418 8.31702 158.737 9.25095 157.031C9.30044 156.943 9.33735 156.842 9.39823 156.762C11.4039 154.145 12.7917 151.184 14.1783 148.22C14.3066 147.945 14.4803 147.685 14.6642 147.444C14.7848 147.287 14.9455 147.118 15.1221 147.051C16.3877 146.587 17.6727 146.327 19.0103 146.746C19.3796 146.861 19.7127 147.274 19.726 147.637C19.7578 148.373 19.6042 149.07 19.2327 149.696C18.9193 150.222 18.5796 150.744 18.1738 151.196C17.2664 152.208 16.6294 153.383 16.2486 154.655C15.9239 155.747 15.4399 156.744 14.9107 157.736C14.4804 158.546 14.0553 159.365 13.7008 160.211C13.1519 161.532 12.4739 162.759 11.7104 163.975C10.9047 165.259 10.2267 166.626 9.29342 167.838C9.26232 167.876 9.32658 168.032 9.38741 168.087C9.45459 168.148 9.58714 168.203 9.66363 168.181C10.3393 167.964 11.0379 167.789 11.6751 167.484C12.8719 166.912 14.0404 166.275 15.2013 165.629C15.549 165.436 15.8481 165.15 16.1449 164.876C17.4192 163.697 18.6465 162.466 19.9627 161.336C20.8959 160.534 21.7786 159.708 22.5925 158.779C24.8114 156.244 27.1038 153.769 29.3556 151.263C29.6929 150.886 29.9783 150.462 30.2839 150.055C30.7747 149.403 31.2704 148.754 31.7473 148.092C32.5742 146.938 33.6402 145.948 34.1345 144.559C34.2669 144.186 34.5391 143.834 34.827 143.552C35.9412 142.464 36.6116 141.093 37.3729 139.766C38.2853 138.175 39.1647 136.562 40.2728 135.076C41.058 134.027 41.5797 132.78 42.2257 131.625C42.3531 131.396 42.8111 131.426 42.9921 131.702C43.1017 131.869 43.1501 132.077 43.2234 132.266C43.0176 132.45 42.8029 132.627 42.6148 132.826C42.565 132.877 42.5725 133.009 42.5946 133.091C42.618 133.172 42.6779 133.273 42.7486 133.301C42.9429 133.384 43.1068 133.292 43.1413 133.068C43.1828 132.791 43.179 132.504 43.1941 132.224C43.935 131.854 44.2382 131.317 43.8877 130.498C43.7298 130.129 43.563 129.754 43.4841 129.365C43.4038 128.959 43.5284 128.564 43.8211 128.253C43.8858 128.184 44.0033 128.098 44.0764 128.115C44.2527 128.157 44.5566 128.246 44.5611 128.333C44.6545 129.78 45.8242 130.825 46.0064 132.231C45.0859 132.904 44.9034 133.732 45.4593 134.739C45.5948 134.987 45.6439 135.283 45.7319 135.558L45.7165 135.513C46.2922 135.231 46.5206 134.757 46.5124 134.128C46.5038 133.441 46.2959 132.823 45.9562 132.238C46.4581 131.704 47.0649 131.372 47.7943 131.262C48.1559 131.208 48.7239 131.607 48.6499 131.918C48.4658 132.698 48.3663 133.529 48.013 134.226C47.3756 135.485 46.5714 136.656 45.8468 137.87C45.4443 138.546 44.8282 138.814 44.0768 138.854C44.0608 138.758 44.0449 138.663 44.0302 138.565L44.1068 138.843L44.1169 138.848ZM14.1896 167.928C14.2417 167.988 14.2963 168.049 14.3484 168.109C14.2888 168.052 14.2292 167.995 14.1671 167.936L14.1896 167.928ZM41.6838 137.803C41.7526 137.617 41.8263 137.434 41.8862 137.248C41.9156 137.156 41.9573 137.038 41.9264 136.961C41.8595 136.79 41.7823 136.59 41.6444 136.488C41.4305 136.33 40.9378 136.474 40.8695 136.71C40.7328 137.175 40.6239 137.654 40.5654 138.132C40.5514 138.256 40.7546 138.494 40.8919 138.52C41.0342 138.549 41.2455 138.417 41.3714 138.301C41.5098 138.171 41.5822 137.972 41.6863 137.804L41.6838 137.803Z" fill="black"/>
<path d="M54.7494 100.344C54.499 99.8903 54.3529 99.434 54.3907 98.8893C54.435 98.2163 54.3796 98.208 53.604 98.22C53.232 98.2258 52.9257 98.0072 52.9472 97.7456C53.1224 95.4032 53.2788 93.0609 53.493 90.7219C53.5857 89.7003 53.8434 88.7061 54.6198 87.9436C54.7913 88.0024 54.9616 88.0638 55.1331 88.1226C55.3941 88.2158 55.5029 88.1532 55.4106 87.9579C55.3863 87.9053 55.2453 87.8865 55.1611 87.8923C54.9827 87.9052 54.8059 87.947 54.6263 87.975C54.386 87.6666 54.0605 87.3917 53.9241 87.0435C53.7388 86.5649 53.8914 86.0543 54.1666 85.6194C54.3773 85.2844 54.6361 84.9791 54.8708 84.6589C55.2832 84.9419 55.693 85.2299 56.1115 85.5002C56.1406 85.5175 56.292 85.4257 56.3103 85.3627C56.3372 85.282 56.3147 85.1552 56.2638 85.0865C55.9051 84.6107 55.3776 84.6783 54.8723 84.6816C54.4632 84.347 54.1402 83.9451 54.1705 83.3904C54.2201 82.476 54.3541 81.5621 54.3787 80.648C54.4302 78.8146 54.3206 76.9712 54.4766 75.1482C54.7176 72.2936 54.5477 69.454 54.5046 66.6044C54.4313 61.9095 54.2009 57.2286 53.8926 52.5472C53.6859 49.3923 53.3887 46.2433 53.6106 43.0757C53.6239 42.8757 53.5705 42.6713 53.5273 42.4718C53.1813 40.8946 53.5487 39.6631 55.1135 38.92C55.4553 38.7585 55.7033 38.3791 55.9646 38.0751C56.094 37.9256 56.1347 37.6952 56.2628 37.5419C58.5021 34.9007 59.2803 34.7618 61.7138 36.9652C62.4679 37.6499 63.1597 38.398 63.8752 39.1233C64.0883 39.3401 64.2506 39.6291 64.496 39.7929C66.2362 40.9503 67.3816 42.6523 68.6642 44.24C71.6833 47.9719 74.4713 51.8693 77.1432 55.8571C77.3713 56.197 77.5556 56.575 77.8323 56.8667C79.7119 58.8526 80.6843 61.318 81.5416 63.8397C81.8088 64.6243 82.1469 65.3153 82.7445 65.9297C83.1505 66.3472 83.4715 66.9578 83.5809 67.5276C84.0133 69.7665 84.9993 71.788 85.9941 73.7918C86.9786 75.7782 87.3677 77.8239 87.1998 80.0041L87.2513 79.9823C86.3125 79.7329 85.6286 79.3141 85.4502 78.2006C85.3144 77.3583 84.9129 77.1682 84.1742 77.2326C83.874 77.2579 83.5756 77.3499 83.2754 77.3752C82.337 77.4578 81.9916 77.2044 81.6847 76.3472C81.4681 75.7407 81.4668 75.1612 81.6915 74.5671L81.6576 74.5786C81.7576 74.374 81.8576 74.1695 81.9576 73.965L81.9667 73.9913C82.0493 73.8096 82.1395 73.6315 82.2297 73.4534L82.1944 73.4549C82.6774 73.9007 83.1566 74.3477 83.6395 74.7935C83.4543 75.1723 83.2666 75.5498 83.0789 75.9274L83.0673 75.8873C83.6025 75.7015 83.7045 75.3009 83.6057 74.7989C83.7769 73.6998 84.1079 72.6132 83.8551 71.479L83.8707 71.5303C83.6686 71.4316 83.4666 71.3328 83.2671 71.2353L83.3086 71.2337C82.9719 70.8344 82.7504 70.385 82.7117 69.8561C82.6745 69.3498 82.6523 68.8383 82.5925 68.3335C82.5352 67.8299 82.1786 67.4521 81.8437 67.5419C81.5101 67.6291 81.4275 67.9454 81.3332 68.2341L81.3707 68.2212C80.776 68.4968 80.5739 69.0894 80.2402 69.5865C79.7377 70.3327 79.058 70.3665 78.504 69.714C78.377 69.5642 78.3097 69.3624 78.1926 69.1987C77.7228 68.5404 76.741 68.4046 76.4646 67.5748C76.2127 66.8165 76.0548 66.0259 75.8342 65.2547C75.7797 65.0654 75.6437 64.9019 75.5441 64.7281L75.5704 64.719C75.2696 65.0976 74.8458 65.2284 74.5247 64.8868C73.6996 64.0078 72.5355 63.4324 72.0908 62.2044C72.0251 62.0252 71.8489 61.8796 71.7068 61.735C69.6145 59.6274 67.7058 57.2873 65.9806 54.7146C65.7016 54.2997 65.3151 53.9512 64.9649 53.586C64.1794 52.7671 63.6425 51.7787 63.0844 50.8081C62.9376 50.5517 62.7926 50.2212 62.8254 49.9431C63.0096 48.3373 62.0144 47.5441 60.7165 46.7812C60.7945 47.3576 60.8565 47.8322 60.9198 48.3044C60.3343 49.0413 60.5953 49.8196 60.7433 50.6304C61.6397 55.5555 62.2912 60.5142 62.5119 65.522C62.5528 66.4369 62.5623 67.3709 62.4396 68.2746C62.0926 70.8021 62.0361 73.3434 61.9746 75.8884C61.944 77.1094 61.7714 78.3266 61.6566 79.5471C61.2326 84.0176 60.8099 88.4917 60.3759 92.9636C60.2768 93.979 60.2094 95.0067 59.648 95.9119C59.1862 95.4483 58.7282 94.9835 58.2664 94.5199C58.0023 94.2281 57.7706 93.8958 57.4655 93.6559C57.244 93.4819 56.9313 93.3853 56.6455 93.3363C56.4982 93.3113 56.239 93.4255 56.1834 93.5454C56.1279 93.6654 56.2146 93.9298 56.3299 94.0331C56.8939 94.5498 57.6135 94.473 58.3039 94.4945C57.8413 95.4792 57.1141 96.2626 56.3755 97.0373C56.2948 97.0104 56.214 96.9646 56.1322 96.9591C56.0706 96.9571 56.0056 97.0067 55.943 97.0324C56.0837 97.0198 56.2244 97.0073 56.3663 96.9922C57.0594 96.8992 57.754 96.8226 58.4444 96.7096C58.9742 96.6244 59.3228 96.2567 59.6411 95.8553C59.7514 96.2378 59.8943 96.6174 59.9632 97.0078C60.0362 97.4409 59.7837 97.7399 59.4847 98.0443C58.9752 98.5617 58.1142 98.3066 57.6683 98.9178C57.7617 99.098 57.8114 99.31 57.9458 99.4383C58.4086 99.8742 58.7046 100.363 58.6552 101.027C58.6011 101.727 58.5784 102.426 58.5365 103.216C58.2646 103.465 57.9348 103.698 57.6936 103.999C56.6368 105.316 55.2124 105.593 53.6391 105.528C52.7197 105.488 52.2949 104.942 52.4301 103.885C52.4547 103.688 52.5297 103.496 52.5833 103.303C52.7225 103.549 52.853 103.801 53.011 104.035C53.0441 104.082 53.2528 104.084 53.2552 104.073C53.2991 103.913 53.3941 103.706 53.3327 103.588C53.1793 103.3 52.8738 103.31 52.5838 103.347C52.2268 102.932 52.1535 102.461 52.3426 101.959C52.4936 101.56 52.845 101.366 53.2029 101.172C53.7271 100.887 54.236 100.575 54.7513 100.276C55.055 100.635 55.3474 101.003 55.681 101.332C55.7229 101.374 56.0649 101.238 56.1166 101.119C56.2769 100.759 56.1341 100.411 55.7557 100.135C55.3634 99.8498 55.0432 100.019 54.7607 100.334L54.7494 100.344ZM80.3166 66.8766C80.733 66.0633 80.952 65.385 80.6918 64.6821C80.3812 63.8388 80.0181 63.0136 79.6387 62.196C79.5156 61.9293 79.2538 61.7544 78.9208 61.7762C78.613 61.7978 78.3703 62.3582 78.5111 62.7743C78.7022 63.3434 78.9135 63.9035 79.1184 64.4699C79.4367 65.342 79.5075 66.2276 79.2478 67.1301C79.2222 67.2208 79.2233 67.3528 79.2717 67.4203C79.3162 67.4827 79.4852 67.5403 79.5302 67.5059C79.8474 67.273 80.1456 67.0152 80.3154 66.8792L80.3166 66.8766ZM78.014 58.9142C77.7928 59.0721 77.576 59.1444 77.5307 59.2756C77.4289 59.5669 77.6317 59.8819 77.9146 59.8857C78.0516 59.887 78.3163 59.6847 78.3031 59.6094C78.2645 59.3747 78.1205 59.1572 78.0115 58.913L78.014 58.9142ZM57.4609 101.729C57.3703 101.716 57.2365 101.664 57.1954 101.703C57.0334 101.862 57.0489 102.047 57.2324 102.184C57.2944 102.23 57.448 102.255 57.4929 102.214C57.6562 102.06 57.6333 101.883 57.4609 101.729ZM54.5387 92.103C54.4725 92.1552 54.3439 92.2393 54.3503 92.2519C54.4219 92.387 54.5135 92.5131 54.5989 92.6393C54.6638 92.5897 54.7925 92.5055 54.7861 92.493C54.7157 92.3554 54.6228 92.2318 54.5387 92.103Z" fill="black"/>
<path d="M51.3361 117.099C50.3283 117.292 49.861 116.622 49.4333 115.897C49.3057 115.684 49.4548 115.2 49.6928 115.104C49.9708 114.989 50.277 114.933 50.5538 114.814C50.7328 114.736 50.9518 114.621 51.0384 114.463C51.6122 113.392 52.1748 112.331 52.094 111.03C52.032 110.005 51.7933 109.034 51.5381 108.052C51.5016 107.909 51.6552 107.646 51.7976 107.547C51.9376 107.453 52.1977 107.433 52.3629 107.492C52.8737 107.676 53.2846 108.083 53.2968 108.596C53.338 110.118 53.2762 111.646 53.2546 113.169C52.5929 114.106 52.5352 115.254 52.156 116.286C52.0332 116.62 51.5889 116.838 51.2934 117.11C51.285 117.012 51.2752 116.91 51.2668 116.812C51.289 116.907 51.3139 117.004 51.3361 117.099Z" fill="black"/>
<path d="M45.6582 124.515C45.7401 124.398 45.8873 124.129 46.0967 123.925C46.2039 123.821 46.4265 123.833 46.5971 123.791C46.603 123.888 46.6177 123.986 46.611 124.083C46.5738 124.844 46.5676 124.856 47.0046 124.935C47.1972 124.97 47.4181 124.934 47.5873 125.017C47.7438 125.093 47.9378 125.266 47.9605 125.418C48.0464 126.024 47.8969 126.598 47.6214 127.142C47.4546 127.471 46.8721 127.702 46.6051 127.512C46.2825 127.283 45.9661 127.04 45.6658 126.778C45.1121 126.291 45.0317 125.886 45.3285 125.195C45.4061 125.011 45.5026 124.839 45.6594 124.519L45.6582 124.515Z" fill="black"/>
<path d="M49.4819 122.319C49.0137 121.702 48.6891 120.977 47.76 120.823C47.2652 120.741 47.2623 119.998 47.7068 119.652C48.0763 119.364 48.7211 119.344 49.087 119.633C49.4909 119.952 49.7875 120.369 49.7444 120.893C49.7048 121.377 49.5405 121.854 49.4291 122.331L49.4819 122.319Z" fill="black"/>
<path d="M57.1449 110.568C56.9849 110.671 56.8008 110.888 56.6685 110.858C56.2856 110.771 55.9082 110.621 55.5696 110.424C55.4697 110.366 55.4176 110.012 55.4946 109.899C55.7701 109.496 56.4086 109.342 56.8412 109.506C57.168 109.631 57.3275 110.188 57.1461 110.566L57.1449 110.568Z" fill="black"/>
<path d="M52.9282 121.094C52.7795 121.193 52.6117 121.396 52.482 121.373C51.9935 121.291 51.713 120.712 51.9011 120.244C51.9306 120.171 52.0443 120.092 52.121 120.089C52.5872 120.07 52.9992 120.59 52.9282 121.094Z" fill="black"/>
<path d="M49.4291 122.331C50.0248 123.007 50.0765 123.317 49.643 123.756C49.415 123.986 49.1125 124.047 48.8706 123.845C48.6616 123.67 48.5411 123.392 48.3793 123.16L48.3417 123.173C48.7213 122.889 49.101 122.606 49.4819 122.319L49.4291 122.331Z" fill="black"/>
<path d="M48.6823 127.513C48.7251 127.669 48.7631 127.834 48.7595 127.995C48.7587 128.048 48.6362 128.132 48.5596 128.142C48.4905 128.149 48.3503 128.071 48.3512 128.037C48.3623 127.867 48.3997 127.694 48.4561 127.534C48.4684 127.503 48.6771 127.498 48.6823 127.513Z" fill="black"/>
<path d="M55.1116 112.737C55.0261 112.739 54.8856 112.777 54.8651 112.741C54.7796 112.596 54.6509 112.405 54.69 112.274C54.7497 112.069 54.9909 112.043 55.1082 112.231C55.1835 112.353 55.1176 112.565 55.1116 112.737Z" fill="black"/>
<path d="M55.292 107.215C55.2138 107.177 55.0967 107.154 55.0521 107.086C55.0279 107.046 55.1067 106.871 55.1532 106.866C55.2336 106.855 55.3247 106.931 55.4118 106.971L55.292 107.215Z" fill="black"/>
<path d="M82.2333 73.459C82.103 72.9447 82.2858 72.5836 82.7666 72.3681L82.7512 72.3417C82.566 72.7143 82.3808 73.0868 82.1943 73.4618L82.2295 73.4602L82.2333 73.459Z" fill="black"/>
<path d="M86.7844 92.0607C86.64 92.0746 86.4943 92.091 86.3473 92.1036C86.4137 92.0766 86.4786 92.027 86.5427 92.0302C86.6283 92.0345 86.7129 92.0789 86.7961 92.1071L86.7844 92.0607Z" fill="black"/>
<path d="M82.7691 72.3693C82.9518 71.9956 83.1283 71.6219 83.3085 71.2469L83.2669 71.2485C83.469 71.3472 83.6685 71.4448 83.8705 71.5436L83.855 71.4922C83.4879 71.7758 83.1196 72.062 82.7526 72.3456L82.7679 72.3718L82.7691 72.3693Z" fill="black"/>
<path d="M81.6925 74.5714C81.7851 74.382 81.879 74.1901 81.9691 73.9994L81.96 73.9731C81.86 74.1776 81.76 74.3822 81.66 74.5867L81.6937 74.5751L81.6925 74.5714Z" fill="black"/>
</svg>
