<?xml version="1.0" encoding="UTF-8" standalone="no"?>
<svg
   width="16"
   height="16"
   fill="currentColor"
   class="bi bi-bag-heart"
   viewBox="0 0 16 16"
   version="1.1"
   id="svg1"
   sodipodi:docname="bag-heart.svg"
   inkscape:version="1.3 (0e150ed, 2023-07-21)"
   xmlns:inkscape="http://www.inkscape.org/namespaces/inkscape"
   xmlns:sodipodi="http://sodipodi.sourceforge.net/DTD/sodipodi-0.dtd"
   xmlns="http://www.w3.org/2000/svg"
   xmlns:svg="http://www.w3.org/2000/svg">
  <defs
     id="defs1" />
  <sodipodi:namedview
     id="namedview1"
     pagecolor="#ffffff"
     bordercolor="#000000"
     borderopacity="0.25"
     inkscape:showpageshadow="2"
     inkscape:pageopacity="0.0"
     inkscape:pagecheckerboard="0"
     inkscape:deskcolor="#d1d1d1"
     inkscape:zoom="28.5625"
     inkscape:cx="8"
     inkscape:cy="8"
     inkscape:window-width="1392"
     inkscape:window-height="872"
     inkscape:window-x="2424"
     inkscape:window-y="242"
     inkscape:window-maximized="0"
     inkscape:current-layer="svg1" />
  <path
     fill-rule="evenodd"
     d="M10.5 3.5a2.5 2.5 0 0 0-5 0V4h5zm1 0V4H15v10a2 2 0 0 1-2 2H3a2 2 0 0 1-2-2V4h3.5v-.5a3.5 3.5 0 1 1 7 0M14 14V5H2v9a1 1 0 0 0 1 1h10a1 1 0 0 0 1-1M8 7.993c1.664-1.711 5.825 1.283 0 5.132-5.825-3.85-1.664-6.843 0-5.132"
     id="path1"
     style="fill:#bef0d5;fill-opacity:1" />
</svg>
