<?xml version="1.0" encoding="UTF-8" standalone="no"?>
<svg
   width="16"
   height="16"
   fill="currentColor"
   class="bi bi-clipboard2-data"
   viewBox="0 0 16 16"
   version="1.1"
   id="svg3"
   sodipodi:docname="clipboard2-data.svg"
   inkscape:version="1.3 (0e150ed, 2023-07-21)"
   xmlns:inkscape="http://www.inkscape.org/namespaces/inkscape"
   xmlns:sodipodi="http://sodipodi.sourceforge.net/DTD/sodipodi-0.dtd"
   xmlns="http://www.w3.org/2000/svg"
   xmlns:svg="http://www.w3.org/2000/svg">
  <defs
     id="defs3" />
  <sodipodi:namedview
     id="namedview3"
     pagecolor="#ffffff"
     bordercolor="#000000"
     borderopacity="0.25"
     inkscape:showpageshadow="2"
     inkscape:pageopacity="0.0"
     inkscape:pagecheckerboard="0"
     inkscape:deskcolor="#d1d1d1"
     inkscape:zoom="18.3125"
     inkscape:cx="8"
     inkscape:cy="8"
     inkscape:window-width="1392"
     inkscape:window-height="872"
     inkscape:window-x="2580"
     inkscape:window-y="261"
     inkscape:window-maximized="0"
     inkscape:current-layer="svg3" />
  <path
     d="M9.5 0a.5.5 0 0 1 .5.5.5.5 0 0 0 .5.5.5.5 0 0 1 .5.5V2a.5.5 0 0 1-.5.5h-5A.5.5 0 0 1 5 2v-.5a.5.5 0 0 1 .5-.5.5.5 0 0 0 .5-.5.5.5 0 0 1 .5-.5z"
     id="path1"
     style="fill:#0071e3;fill-opacity:1" />
  <path
     d="M3 2.5a.5.5 0 0 1 .5-.5H4a.5.5 0 0 0 0-1h-.5A1.5 1.5 0 0 0 2 2.5v12A1.5 1.5 0 0 0 3.5 16h9a1.5 1.5 0 0 0 1.5-1.5v-12A1.5 1.5 0 0 0 12.5 1H12a.5.5 0 0 0 0 1h.5a.5.5 0 0 1 .5.5v12a.5.5 0 0 1-.5.5h-9a.5.5 0 0 1-.5-.5z"
     id="path2"
     style="fill:#0071e3;fill-opacity:1" />
  <path
     d="M10 7a1 1 0 1 1 2 0v5a1 1 0 1 1-2 0zm-6 4a1 1 0 1 1 2 0v1a1 1 0 1 1-2 0zm4-3a1 1 0 0 0-1 1v3a1 1 0 1 0 2 0V9a1 1 0 0 0-1-1"
     id="path3"
     style="fill:#0071e3;fill-opacity:1" />
</svg>
