<?xml version="1.0" encoding="UTF-8" standalone="no"?>
<svg
   width="16"
   height="16"
   fill="currentColor"
   class="bi bi-cloud-haze2"
   viewBox="0 0 16 16"
   version="1.1"
   id="svg1"
   sodipodi:docname="cloud-haze2.svg"
   inkscape:version="1.3 (0e150ed, 2023-07-21)"
   xmlns:inkscape="http://www.inkscape.org/namespaces/inkscape"
   xmlns:sodipodi="http://sodipodi.sourceforge.net/DTD/sodipodi-0.dtd"
   xmlns="http://www.w3.org/2000/svg"
   xmlns:svg="http://www.w3.org/2000/svg">
  <defs
     id="defs1" />
  <sodipodi:namedview
     id="namedview1"
     pagecolor="#ffffff"
     bordercolor="#000000"
     borderopacity="0.25"
     inkscape:showpageshadow="2"
     inkscape:pageopacity="0.0"
     inkscape:pagecheckerboard="0"
     inkscape:deskcolor="#d1d1d1"
     inkscape:zoom="18.3125"
     inkscape:cx="8"
     inkscape:cy="8"
     inkscape:window-width="1392"
     inkscape:window-height="872"
     inkscape:window-x="2205"
     inkscape:window-y="207"
     inkscape:window-maximized="0"
     inkscape:current-layer="svg1" />
  <path
     d="M8.5 3a4 4 0 0 0-3.8 2.745.5.5 0 1 1-.949-.313 5.002 5.002 0 0 1 9.654.595A3 3 0 0 1 13 12H4.5a.5.5 0 0 1 0-1H13a2 2 0 0 0 .001-4h-.026a.5.5 0 0 1-.5-.445A4 4 0 0 0 8.5 3M0 7.5A.5.5 0 0 1 .5 7h5a.5.5 0 0 1 0 1h-5a.5.5 0 0 1-.5-.5m2 2a.5.5 0 0 1 .5-.5h9a.5.5 0 0 1 0 1h-9a.5.5 0 0 1-.5-.5m-2 4a.5.5 0 0 1 .5-.5h9a.5.5 0 0 1 0 1h-9a.5.5 0 0 1-.5-.5"
     id="path1"
     style="fill:#0071e3;fill-opacity:1" />
</svg>
