<?xml version="1.0" encoding="UTF-8" standalone="no"?>
<svg
   width="16"
   height="16"
   fill="currentColor"
   class="bi bi-house-check-fill"
   viewBox="0 0 16 16"
   version="1.1"
   id="svg3"
   sodipodi:docname="house-check-fill.svg"
   inkscape:version="1.3 (0e150ed, 2023-07-21)"
   xmlns:inkscape="http://www.inkscape.org/namespaces/inkscape"
   xmlns:sodipodi="http://sodipodi.sourceforge.net/DTD/sodipodi-0.dtd"
   xmlns="http://www.w3.org/2000/svg"
   xmlns:svg="http://www.w3.org/2000/svg">
  <defs
     id="defs3" />
  <sodipodi:namedview
     id="namedview3"
     pagecolor="#ffffff"
     bordercolor="#000000"
     borderopacity="0.25"
     inkscape:showpageshadow="2"
     inkscape:pageopacity="0.0"
     inkscape:pagecheckerboard="0"
     inkscape:deskcolor="#d1d1d1"
     inkscape:zoom="14.75"
     inkscape:cx="7.9661017"
     inkscape:cy="8"
     inkscape:window-width="1384"
     inkscape:window-height="723"
     inkscape:window-x="0"
     inkscape:window-y="0"
     inkscape:window-maximized="0"
     inkscape:current-layer="svg3" />
  <path
     d="M8.707 1.5a1 1 0 0 0-1.414 0L.646 8.146a.5.5 0 0 0 .708.708L8 2.207l6.646 6.647a.5.5 0 0 0 .708-.708L13 5.793V2.5a.5.5 0 0 0-.5-.5h-1a.5.5 0 0 0-.5.5v1.293z"
     id="path1"
     style="fill:#000000;fill-opacity:1" />
  <path
     d="m8 3.293 4.712 4.712A4.5 4.5 0 0 0 8.758 15H3.5A1.5 1.5 0 0 1 2 13.5V9.293z"
     id="path2"
     style="fill:#000000;fill-opacity:1" />
  <path
     d="M12.5 16a3.5 3.5 0 1 0 0-7 3.5 3.5 0 0 0 0 7m1.679-4.493-1.335 2.226a.75.75 0 0 1-1.174.144l-.774-.773a.5.5 0 0 1 .708-.707l.547.547 1.17-1.951a.5.5 0 1 1 .858.514"
     id="path3"
     style="fill:#000000;fill-opacity:1" />
</svg>
